<?xml version="1.0" standalone="no"?>
<!DOCTYPE svg PUBLIC "-//W3C//DTD SVG 20010904//EN"
 "http://www.w3.org/TR/2001/REC-SVG-20010904/DTD/svg10.dtd">
<svg version="1.0" xmlns="http://www.w3.org/2000/svg"
 width="512.000000pt" height="512.000000pt" viewBox="0 0 512.000000 512.000000"
 preserveAspectRatio="xMidYMid meet">
<metadata>
Created by potrace 1.16, written by Peter Selinger 2001-2019
</metadata>
<g transform="translate(0.000000,512.000000) scale(0.100000,-0.100000)"
fill="#000000" stroke="none">
<path d="M2236 5024 c-1052 -140 -1899 -930 -2110 -1967 -35 -174 -46 -290
-46 -506 0 -287 35 -510 121 -771 305 -922 1120 -1583 2084 -1690 227 -25 561
-8 795 41 469 97 929 352 1265 700 387 401 626 912 685 1466 16 148 8 524 -14
653 -186 1078 -986 1878 -2066 2066 -134 23 -565 28 -714 8z m462 -1760 c154
-31 287 -106 393 -222 103 -112 161 -242 182 -403 18 -147 -17 -315 -95 -447
-42 -73 -177 -208 -250 -250 -271 -160 -620 -124 -850 87 -188 172 -272 426
-222 669 80 392 457 645 842 566z m-1494 -806 c2 -13 11 -70 20 -127 86 -551
521 -994 1086 -1108 118 -24 383 -24 502 0 423 85 775 352 967 735 49 97 99
257 117 373 9 57 18 114 20 127 l4 22 481 0 480 0 -5 -42 c-3 -24 -8 -74 -11
-113 -21 -246 -97 -515 -214 -760 -120 -249 -242 -424 -431 -619 -196 -201
-389 -341 -645 -466 -340 -167 -633 -234 -1015 -234 -397 0 -719 78 -1066 258
-301 157 -568 380 -772 644 -258 335 -433 776 -467 1177 -3 39 -8 89 -11 113
l-5 42 480 0 481 0 4 -22z"/>
<path d="M2464 2866 c-64 -20 -131 -72 -169 -129 -108 -164 -48 -380 130 -468
41 -20 65 -24 135 -24 70 0 94 4 135 24 63 32 124 93 156 156 35 72 35 198 0
270 -32 63 -93 125 -155 155 -60 28 -171 36 -232 16z m166 -168 c48 -25 90
-89 90 -138 0 -14 -10 -46 -22 -70 -25 -48 -89 -90 -138 -90 -14 0 -46 10 -70
23 -48 24 -90 88 -90 137 0 14 10 46 23 70 24 48 88 90 137 90 14 0 46 -10 70
-22z"/>
</g>
</svg>
